<?xml version="1.0" encoding="UTF-8" standalone="no"?>
<!DOCTYPE svg PUBLIC "-//W3C//DTD SVG 1.1//EN" "http://www.w3.org/Graphics/SVG/1.1/DTD/svg11.dtd">
<!-- Created with Vectornator (http://vectornator.io/) -->
<svg height="100%" stroke-miterlimit="10" style="fill-rule:nonzero;clip-rule:evenodd;stroke-linecap:round;stroke-linejoin:round;" version="1.1" viewBox="0 0 1024 1024" width="100%" xml:space="preserve" xmlns="http://www.w3.org/2000/svg" xmlns:xlink="http://www.w3.org/1999/xlink">
<defs/>
<g id="Layer-1">
<path d="M803.707 130.358L810.107 135.121C868.168 178.337 880.202 260.438 836.987 318.499L728.227 464.62C685.011 522.681 602.91 534.716 544.849 491.5L538.449 486.737C480.388 443.521 468.354 361.42 511.569 303.359L620.33 157.238C663.545 99.1767 745.646 87.1422 803.707 130.358Z" fill="none" opacity="1" stroke="#3897f1" stroke-linecap="butt" stroke-linejoin="round" stroke-width="80"/>
<path d="M479.151 532.5L485.551 537.263C543.612 580.479 555.646 662.58 512.431 720.641L403.67 866.762C360.455 924.823 278.354 936.858 220.293 893.642L213.893 888.879C155.832 845.663 143.798 763.562 187.013 705.501L295.773 559.38C338.989 501.319 421.09 489.284 479.151 532.5Z" fill="none" opacity="1" stroke="#91d04b" stroke-linecap="butt" stroke-linejoin="round" stroke-width="80"/>
<path d="M609.63 390.55L625.78 404.31C645.734 421.311 650.373 448.636 636.139 465.342L501.124 623.811C486.891 640.516 459.176 640.277 439.222 623.276L423.072 609.516C403.117 592.515 398.479 565.19 412.712 548.484L547.728 390.015C561.961 373.31 589.675 373.549 609.63 390.55Z" fill="#f5891d" fill-rule="nonzero" opacity="1" stroke="none"/>
</g>
</svg>
